<svg width="208" height="50" viewBox="0 0 308 70" fill="none" xmlns="http://www.w3.org/2000/svg">
    <path d="M40.9063 69.4121C40.3184 69.4121 39.4297 68.8242 39.4297 68.2363C39.4297 67.3477 39.7305 66.7598 40.6055 66.459C47.0996 65.2832 53.0059 62.3301 57.7363 57.5996C69.8496 45.4863 70.1367 26.291 58.9121 13.5898C58.3242 13.002 58.3242 12.1133 58.9121 11.5254C59.5 10.9375 60.3887 10.9375 60.9766 11.5254C73.3769 25.4023 72.7891 46.375 59.5 59.3769C54.7832 64.6816 48.2891 68.2227 40.9063 69.4121Z" fill="white"/>
    <path d="M10.1855 58.7754C9.88475 58.7754 9.29686 58.4746 9.00975 58.1875C-3.39064 44.2969 -2.80275 23.3379 10.4863 10.3359C15.8047 5.01758 22.2988 1.77734 29.6816 0.587891C30.5703 0.587891 31.1582 0.888672 31.459 1.76367C31.459 2.65234 31.1582 3.24023 30.2832 3.54102C23.4746 4.73047 17.5683 7.68359 12.8516 12.4004C0.451159 24.2129 -0.150403 43.709 11.0742 56.1094C11.6621 56.6973 11.6621 57.5859 11.0742 58.1738C10.7734 58.4746 10.4863 58.7754 10.1855 58.7754Z" fill="white"/>
    <path d="M18.457 70C16.6797 70 15.8047 69.6992 15.5039 69.6992C14.3281 69.3984 12.8516 68.5234 13.1387 66.1582C13.4395 63.793 14.6152 63.2051 16.0918 63.2051C23.7754 63.2051 24.9512 54.9336 24.9512 35.7383L16.9805 33.9609C14.3281 33.373 14.3281 31.0078 14.3281 30.1191C14.3281 28.9434 14.3281 26.5781 16.9805 25.9902L25.5391 24.2129C27.0156 16.2422 29.9688 10.3359 34.6992 6.19336C40.9063 0.888672 48.002 0 51.543 0C53.3203 0 54.4961 0.300781 54.4961 0.300781C55.9727 0.601563 56.8613 1.77734 56.5606 3.8418C56.5606 4.73047 56.2598 6.79492 53.9082 6.79492C48.002 6.79492 45.6367 11.5254 45.0488 24.5137L51.8438 25.9902C54.4961 26.5781 54.4961 28.9434 54.4961 30.1191C54.4961 31.2949 54.4961 33.6602 51.8438 34.248L44.748 35.7246C44.748 48.7266 41.4941 58.1738 34.7129 64.0801C29.3945 69.1113 21.998 70 18.457 70ZM16.3926 66.7461C17.8691 66.7461 26.4277 67.6348 33.5234 61.4277C39.7305 56.1094 42.6836 46.9492 42.6836 34.8496V33.0723L51.8438 31.0078C52.1445 30.707 52.1445 30.1191 52.1445 29.832V28.6563L42.6973 26.8789V25.7031C42.9707 14.7656 44.1602 4.12891 53.9082 3.8418V3.54102V3.24023H51.8438C48.5898 3.24023 42.0957 3.82812 36.7773 8.55859C32.3477 12.4004 29.3945 18.3066 28.2187 25.9902V26.5781L17.582 28.9434C17.2813 28.9434 17.2813 29.832 17.2813 30.1191V31.2949L27.6172 33.3594V35.7246C27.6172 51.0781 27.6172 65.8574 15.8047 66.1445V66.4453C16.0918 66.7461 16.0918 66.7461 16.3926 66.7461C16.0918 66.7461 16.0918 66.7461 16.3926 66.7461Z" fill="white"/>
    <path d="M85.656 30V7.6H96.6C99.416 7.6 101.528 8.13333 102.936 9.2C104.365 10.2667 105.08 11.6747 105.08 13.424C105.08 14.5973 104.792 15.6213 104.216 16.496C103.64 17.3493 102.851 18.0107 101.848 18.48C100.845 18.9493 99.6933 19.184 98.392 19.184L99 17.872C100.408 17.872 101.656 18.1067 102.744 18.576C103.832 19.024 104.675 19.696 105.272 20.592C105.891 21.488 106.2 22.5867 106.2 23.888C106.2 25.808 105.443 27.312 103.928 28.4C102.413 29.4667 100.184 30 97.24 30H85.656ZM90.808 26.096H96.856C98.2 26.096 99.2133 25.8827 99.896 25.456C100.6 25.008 100.952 24.304 100.952 23.344C100.952 22.4053 100.6 21.712 99.896 21.264C99.2133 20.7947 98.2 20.56 96.856 20.56H90.424V16.784H95.96C97.2187 16.784 98.1787 16.5707 98.84 16.144C99.5227 15.696 99.864 15.024 99.864 14.128C99.864 13.2533 99.5227 12.6027 98.84 12.176C98.1787 11.728 97.2187 11.504 95.96 11.504H90.808V26.096ZM107.181 30L117.165 7.6H122.285L132.301 30H126.861L118.669 10.224H120.717L112.493 30H107.181ZM112.173 25.2L113.549 21.264H125.069L126.477 25.2H112.173ZM134.625 30V7.6H144.801C147.233 7.6 149.377 8.06933 151.233 9.008C153.089 9.92533 154.539 11.216 155.585 12.88C156.63 14.544 157.153 16.5173 157.153 18.8C157.153 21.0613 156.63 23.0347 155.585 24.72C154.539 26.384 153.089 27.6853 151.233 28.624C149.377 29.5413 147.233 30 144.801 30H134.625ZM139.809 25.744H144.545C146.038 25.744 147.329 25.4667 148.417 24.912C149.526 24.336 150.379 23.5253 150.977 22.48C151.595 21.4347 151.905 20.208 151.905 18.8C151.905 17.3707 151.595 16.144 150.977 15.12C150.379 14.0747 149.526 13.2747 148.417 12.72C147.329 12.144 146.038 11.856 144.545 11.856H139.809V25.744ZM161.062 30V7.6H166.246V30H161.062ZM171.562 30V7.6H181.258C183.264 7.6 184.992 7.93067 186.442 8.592C187.893 9.232 189.013 10.16 189.802 11.376C190.592 12.592 190.986 14.0427 190.986 15.728C190.986 17.392 190.592 18.832 189.802 20.048C189.013 21.2427 187.893 22.16 186.442 22.8C184.992 23.44 183.264 23.76 181.258 23.76H174.442L176.746 21.488V30H171.562ZM185.802 30L180.202 21.872H185.738L191.402 30H185.802ZM176.746 22.064L174.442 19.632H180.97C182.57 19.632 183.765 19.2907 184.554 18.608C185.344 17.904 185.738 16.944 185.738 15.728C185.738 14.4907 185.344 13.5307 184.554 12.848C183.765 12.1653 182.57 11.824 180.97 11.824H174.442L176.746 9.36V22.064ZM195.094 30V7.6H205.27C207.702 7.6 209.846 8.06933 211.702 9.008C213.558 9.92533 215.008 11.216 216.054 12.88C217.099 14.544 217.622 16.5173 217.622 18.8C217.622 21.0613 217.099 23.0347 216.054 24.72C215.008 26.384 213.558 27.6853 211.702 28.624C209.846 29.5413 207.702 30 205.27 30H195.094ZM200.278 25.744H205.014C206.507 25.744 207.798 25.4667 208.885 24.912C209.995 24.336 210.848 23.5253 211.446 22.48C212.064 21.4347 212.374 20.208 212.374 18.8C212.374 17.3707 212.064 16.144 211.446 15.12C210.848 14.0747 209.995 13.2747 208.885 12.72C207.798 12.144 206.507 11.856 205.014 11.856H200.278V25.744ZM221.531 30V7.6H226.715V30H221.531ZM232.031 30V7.6H236.319L249.535 23.728H247.455V7.6H252.575V30H248.319L235.071 13.872H237.151V30H232.031ZM268.755 30.384C266.984 30.384 265.341 30.096 263.827 29.52C262.333 28.944 261.032 28.1333 259.923 27.088C258.835 26.0427 257.981 24.816 257.363 23.408C256.765 22 256.467 20.464 256.467 18.8C256.467 17.136 256.765 15.6 257.363 14.192C257.981 12.784 258.845 11.5573 259.955 10.512C261.064 9.46667 262.365 8.656 263.859 8.08C265.352 7.504 266.973 7.216 268.723 7.216C270.493 7.216 272.115 7.504 273.587 8.08C275.08 8.656 276.371 9.46667 277.459 10.512C278.568 11.5573 279.432 12.784 280.051 14.192C280.669 15.5787 280.979 17.1147 280.979 18.8C280.979 20.464 280.669 22.0107 280.051 23.44C279.432 24.848 278.568 26.0747 277.459 27.12C276.371 28.144 275.08 28.944 273.587 29.52C272.115 30.096 270.504 30.384 268.755 30.384ZM268.723 25.968C269.725 25.968 270.643 25.7973 271.475 25.456C272.328 25.1147 273.075 24.624 273.715 23.984C274.355 23.344 274.845 22.5867 275.187 21.712C275.549 20.8373 275.731 19.8667 275.731 18.8C275.731 17.7333 275.549 16.7627 275.187 15.888C274.845 15.0133 274.355 14.256 273.715 13.616C273.096 12.976 272.36 12.4853 271.507 12.144C270.653 11.8027 269.725 11.632 268.723 11.632C267.72 11.632 266.792 11.8027 265.939 12.144C265.107 12.4853 264.371 12.976 263.731 13.616C263.091 14.256 262.589 15.0133 262.227 15.888C261.885 16.7627 261.715 17.7333 261.715 18.8C261.715 19.8453 261.885 20.816 262.227 21.712C262.589 22.5867 263.08 23.344 263.699 23.984C264.339 24.624 265.085 25.1147 265.939 25.456C266.792 25.7973 267.72 25.968 268.723 25.968ZM290.876 30L281.212 7.6H286.812L295.26 27.44H291.964L300.54 7.6H305.692L295.996 30H290.876Z" fill="white"/>
    <path d="M87.3569 52.3H94.0769V54.9H87.3569V52.3ZM87.5969 60H84.3569V46H94.9369V48.6H87.5969V60ZM97.615 60V49.24H100.595V52.28L100.175 51.4C100.495 50.64 101.008 50.0667 101.715 49.68C102.422 49.28 103.282 49.08 104.295 49.08V51.96C104.162 51.9467 104.042 51.94 103.935 51.94C103.828 51.9267 103.715 51.92 103.595 51.92C102.742 51.92 102.048 52.1667 101.515 52.66C100.995 53.14 100.735 53.8933 100.735 54.92V60H97.615ZM112.092 60.16C110.945 60.16 109.925 59.92 109.032 59.44C108.152 58.96 107.452 58.3067 106.932 57.48C106.425 56.64 106.172 55.6867 106.172 54.62C106.172 53.54 106.425 52.5867 106.932 51.76C107.452 50.92 108.152 50.2667 109.032 49.8C109.925 49.32 110.945 49.08 112.092 49.08C113.225 49.08 114.239 49.32 115.132 49.8C116.025 50.2667 116.725 50.9133 117.232 51.74C117.739 52.5667 117.992 53.5267 117.992 54.62C117.992 55.6867 117.739 56.64 117.232 57.48C116.725 58.3067 116.025 58.96 115.132 59.44C114.239 59.92 113.225 60.16 112.092 60.16ZM112.092 57.6C112.612 57.6 113.079 57.48 113.492 57.24C113.905 57 114.232 56.66 114.472 56.22C114.712 55.7667 114.832 55.2333 114.832 54.62C114.832 53.9933 114.712 53.46 114.472 53.02C114.232 52.58 113.905 52.24 113.492 52C113.079 51.76 112.612 51.64 112.092 51.64C111.572 51.64 111.105 51.76 110.692 52C110.279 52.24 109.945 52.58 109.692 53.02C109.452 53.46 109.332 53.9933 109.332 54.62C109.332 55.2333 109.452 55.7667 109.692 56.22C109.945 56.66 110.279 57 110.692 57.24C111.105 57.48 111.572 57.6 112.092 57.6ZM127.518 49.08C128.371 49.08 129.131 49.2533 129.798 49.6C130.478 49.9333 131.011 50.4533 131.398 51.16C131.784 51.8533 131.978 52.7467 131.978 53.84V60H128.858V54.32C128.858 53.4533 128.664 52.8133 128.278 52.4C127.904 51.9867 127.371 51.78 126.678 51.78C126.184 51.78 125.738 51.8867 125.338 52.1C124.951 52.3 124.644 52.6133 124.418 53.04C124.204 53.4667 124.098 54.0133 124.098 54.68V60H120.978V49.24H123.958V52.22L123.398 51.32C123.784 50.6 124.338 50.0467 125.058 49.66C125.778 49.2733 126.598 49.08 127.518 49.08ZM140.106 60.16C138.839 60.16 137.852 59.84 137.146 59.2C136.439 58.5467 136.086 57.58 136.086 56.3V46.86H139.206V56.26C139.206 56.7133 139.326 57.0667 139.566 57.32C139.806 57.56 140.132 57.68 140.546 57.68C141.039 57.68 141.459 57.5467 141.806 57.28L142.646 59.48C142.326 59.7067 141.939 59.88 141.486 60C141.046 60.1067 140.586 60.16 140.106 60.16ZM134.426 51.88V49.48H141.886V51.88H134.426ZM150.305 60.16C149.078 60.16 147.998 59.92 147.065 59.44C146.145 58.96 145.432 58.3067 144.925 57.48C144.418 56.64 144.165 55.6867 144.165 54.62C144.165 53.54 144.412 52.5867 144.905 51.76C145.412 50.92 146.098 50.2667 146.965 49.8C147.832 49.32 148.812 49.08 149.905 49.08C150.958 49.08 151.905 49.3067 152.745 49.76C153.598 50.2 154.272 50.84 154.765 51.68C155.258 52.5067 155.505 53.5 155.505 54.66C155.505 54.78 155.498 54.92 155.485 55.08C155.472 55.2267 155.458 55.3667 155.445 55.5H146.705V53.68H153.805L152.605 54.22C152.605 53.66 152.492 53.1733 152.265 52.76C152.038 52.3467 151.725 52.0267 151.325 51.8C150.925 51.56 150.458 51.44 149.925 51.44C149.392 51.44 148.918 51.56 148.505 51.8C148.105 52.0267 147.792 52.3533 147.565 52.78C147.338 53.1933 147.225 53.6867 147.225 54.26V54.74C147.225 55.3267 147.352 55.8467 147.605 56.3C147.872 56.74 148.238 57.08 148.705 57.32C149.185 57.5467 149.745 57.66 150.385 57.66C150.958 57.66 151.458 57.5733 151.885 57.4C152.325 57.2267 152.725 56.9667 153.085 56.62L154.745 58.42C154.252 58.98 153.632 59.4133 152.885 59.72C152.138 60.0133 151.278 60.16 150.305 60.16ZM165.022 49.08C165.876 49.08 166.636 49.2533 167.302 49.6C167.982 49.9333 168.516 50.4533 168.902 51.16C169.289 51.8533 169.482 52.7467 169.482 53.84V60H166.362V54.32C166.362 53.4533 166.169 52.8133 165.782 52.4C165.409 51.9867 164.876 51.78 164.182 51.78C163.689 51.78 163.242 51.8867 162.842 52.1C162.456 52.3 162.149 52.6133 161.922 53.04C161.709 53.4667 161.602 54.0133 161.602 54.68V60H158.482V49.24H161.462V52.22L160.902 51.32C161.289 50.6 161.842 50.0467 162.562 49.66C163.282 49.2733 164.102 49.08 165.022 49.08ZM177.908 60.16C176.895 60.16 175.982 59.9333 175.168 59.48C174.355 59.0133 173.708 58.3667 173.228 57.54C172.762 56.7133 172.528 55.74 172.528 54.62C172.528 53.4867 172.762 52.5067 173.228 51.68C173.708 50.8533 174.355 50.2133 175.168 49.76C175.982 49.3067 176.895 49.08 177.908 49.08C178.815 49.08 179.608 49.28 180.288 49.68C180.968 50.08 181.495 50.6867 181.868 51.5C182.242 52.3133 182.428 53.3533 182.428 54.62C182.428 55.8733 182.248 56.9133 181.888 57.74C181.528 58.5533 181.008 59.16 180.328 59.56C179.662 59.96 178.855 60.16 177.908 60.16ZM178.448 57.6C178.955 57.6 179.415 57.48 179.828 57.24C180.242 57 180.568 56.66 180.808 56.22C181.062 55.7667 181.188 55.2333 181.188 54.62C181.188 53.9933 181.062 53.46 180.808 53.02C180.568 52.58 180.242 52.24 179.828 52C179.415 51.76 178.955 51.64 178.448 51.64C177.928 51.64 177.462 51.76 177.048 52C176.635 52.24 176.302 52.58 176.048 53.02C175.808 53.46 175.688 53.9933 175.688 54.62C175.688 55.2333 175.808 55.7667 176.048 56.22C176.302 56.66 176.635 57 177.048 57.24C177.462 57.48 177.928 57.6 178.448 57.6ZM181.268 60V57.8L181.328 54.6L181.128 51.42V45.16H184.248V60H181.268ZM199.22 60.16C198.207 60.16 197.294 59.9333 196.48 59.48C195.667 59.0133 195.02 58.3667 194.54 57.54C194.074 56.7133 193.84 55.74 193.84 54.62C193.84 53.4867 194.074 52.5067 194.54 51.68C195.02 50.8533 195.667 50.2133 196.48 49.76C197.294 49.3067 198.207 49.08 199.22 49.08C200.127 49.08 200.92 49.28 201.6 49.68C202.28 50.08 202.807 50.6867 203.18 51.5C203.554 52.3133 203.74 53.3533 203.74 54.62C203.74 55.8733 203.56 56.9133 203.2 57.74C202.84 58.5533 202.32 59.16 201.64 59.56C200.974 59.96 200.167 60.16 199.22 60.16ZM199.76 57.6C200.267 57.6 200.727 57.48 201.14 57.24C201.554 57 201.88 56.66 202.12 56.22C202.374 55.7667 202.5 55.2333 202.5 54.62C202.5 53.9933 202.374 53.46 202.12 53.02C201.88 52.58 201.554 52.24 201.14 52C200.727 51.76 200.267 51.64 199.76 51.64C199.24 51.64 198.774 51.76 198.36 52C197.947 52.24 197.614 52.58 197.36 53.02C197.12 53.46 197 53.9933 197 54.62C197 55.2333 197.12 55.7667 197.36 56.22C197.614 56.66 197.947 57 198.36 57.24C198.774 57.48 199.24 57.6 199.76 57.6ZM202.58 60V57.8L202.64 54.6L202.44 51.42V45.16H205.56V60H202.58ZM214.688 60.16C213.461 60.16 212.381 59.92 211.448 59.44C210.528 58.96 209.815 58.3067 209.308 57.48C208.801 56.64 208.548 55.6867 208.548 54.62C208.548 53.54 208.795 52.5867 209.288 51.76C209.795 50.92 210.481 50.2667 211.348 49.8C212.215 49.32 213.195 49.08 214.288 49.08C215.341 49.08 216.288 49.3067 217.128 49.76C217.981 50.2 218.655 50.84 219.148 51.68C219.641 52.5067 219.888 53.5 219.888 54.66C219.888 54.78 219.881 54.92 219.868 55.08C219.855 55.2267 219.841 55.3667 219.828 55.5H211.088V53.68H218.188L216.988 54.22C216.988 53.66 216.875 53.1733 216.648 52.76C216.421 52.3467 216.108 52.0267 215.708 51.8C215.308 51.56 214.841 51.44 214.308 51.44C213.775 51.44 213.301 51.56 212.888 51.8C212.488 52.0267 212.175 52.3533 211.948 52.78C211.721 53.1933 211.608 53.6867 211.608 54.26V54.74C211.608 55.3267 211.735 55.8467 211.988 56.3C212.255 56.74 212.621 57.08 213.088 57.32C213.568 57.5467 214.128 57.66 214.768 57.66C215.341 57.66 215.841 57.5733 216.268 57.4C216.708 57.2267 217.108 56.9667 217.468 56.62L219.128 58.42C218.635 58.98 218.015 59.4133 217.268 59.72C216.521 60.0133 215.661 60.16 214.688 60.16ZM225.59 60L221.07 49.24H224.29L228.05 58.5H226.45L230.35 49.24H233.35L228.81 60H225.59ZM240.57 60.16C239.343 60.16 238.263 59.92 237.33 59.44C236.41 58.96 235.697 58.3067 235.19 57.48C234.683 56.64 234.43 55.6867 234.43 54.62C234.43 53.54 234.677 52.5867 235.17 51.76C235.677 50.92 236.363 50.2667 237.23 49.8C238.097 49.32 239.077 49.08 240.17 49.08C241.223 49.08 242.17 49.3067 243.01 49.76C243.863 50.2 244.537 50.84 245.03 51.68C245.523 52.5067 245.77 53.5 245.77 54.66C245.77 54.78 245.763 54.92 245.75 55.08C245.737 55.2267 245.723 55.3667 245.71 55.5H236.97V53.68H244.07L242.87 54.22C242.87 53.66 242.757 53.1733 242.53 52.76C242.303 52.3467 241.99 52.0267 241.59 51.8C241.19 51.56 240.723 51.44 240.19 51.44C239.657 51.44 239.183 51.56 238.77 51.8C238.37 52.0267 238.057 52.3533 237.83 52.78C237.603 53.1933 237.49 53.6867 237.49 54.26V54.74C237.49 55.3267 237.617 55.8467 237.87 56.3C238.137 56.74 238.503 57.08 238.97 57.32C239.45 57.5467 240.01 57.66 240.65 57.66C241.223 57.66 241.723 57.5733 242.15 57.4C242.59 57.2267 242.99 56.9667 243.35 56.62L245.01 58.42C244.517 58.98 243.897 59.4133 243.15 59.72C242.403 60.0133 241.543 60.16 240.57 60.16ZM248.747 60V45.16H251.867V60H248.747ZM260.783 60.16C259.636 60.16 258.616 59.92 257.723 59.44C256.843 58.96 256.143 58.3067 255.623 57.48C255.116 56.64 254.863 55.6867 254.863 54.62C254.863 53.54 255.116 52.5867 255.623 51.76C256.143 50.92 256.843 50.2667 257.723 49.8C258.616 49.32 259.636 49.08 260.783 49.08C261.916 49.08 262.929 49.32 263.823 49.8C264.716 50.2667 265.416 50.9133 265.923 51.74C266.429 52.5667 266.683 53.5267 266.683 54.62C266.683 55.6867 266.429 56.64 265.923 57.48C265.416 58.3067 264.716 58.96 263.823 59.44C262.929 59.92 261.916 60.16 260.783 60.16ZM260.783 57.6C261.303 57.6 261.769 57.48 262.183 57.24C262.596 57 262.923 56.66 263.163 56.22C263.403 55.7667 263.523 55.2333 263.523 54.62C263.523 53.9933 263.403 53.46 263.163 53.02C262.923 52.58 262.596 52.24 262.183 52C261.769 51.76 261.303 51.64 260.783 51.64C260.263 51.64 259.796 51.76 259.383 52C258.969 52.24 258.636 52.58 258.383 53.02C258.143 53.46 258.023 53.9933 258.023 54.62C258.023 55.2333 258.143 55.7667 258.383 56.22C258.636 56.66 258.969 57 259.383 57.24C259.796 57.48 260.263 57.6 260.783 57.6ZM276.028 60.16C275.121 60.16 274.328 59.96 273.648 59.56C272.968 59.16 272.435 58.5533 272.048 57.74C271.675 56.9133 271.488 55.8733 271.488 54.62C271.488 53.3533 271.668 52.3133 272.028 51.5C272.388 50.6867 272.908 50.08 273.588 49.68C274.268 49.28 275.081 49.08 276.028 49.08C277.041 49.08 277.948 49.3133 278.748 49.78C279.561 50.2333 280.201 50.8733 280.668 51.7C281.148 52.5267 281.388 53.5 281.388 54.62C281.388 55.7533 281.148 56.7333 280.668 57.56C280.201 58.3867 279.561 59.0267 278.748 59.48C277.948 59.9333 277.041 60.16 276.028 60.16ZM269.668 63.88V49.24H272.648V51.44L272.588 54.64L272.788 57.82V63.88H269.668ZM275.488 57.6C276.008 57.6 276.468 57.48 276.868 57.24C277.281 57 277.608 56.66 277.848 56.22C278.101 55.7667 278.228 55.2333 278.228 54.62C278.228 53.9933 278.101 53.46 277.848 53.02C277.608 52.58 277.281 52.24 276.868 52C276.468 51.76 276.008 51.64 275.488 51.64C274.968 51.64 274.501 51.76 274.088 52C273.675 52.24 273.348 52.58 273.108 53.02C272.868 53.46 272.748 53.9933 272.748 54.62C272.748 55.2333 272.868 55.7667 273.108 56.22C273.348 56.66 273.675 57 274.088 57.24C274.501 57.48 274.968 57.6 275.488 57.6ZM289.717 60.16C288.49 60.16 287.41 59.92 286.477 59.44C285.557 58.96 284.843 58.3067 284.337 57.48C283.83 56.64 283.577 55.6867 283.577 54.62C283.577 53.54 283.823 52.5867 284.317 51.76C284.823 50.92 285.51 50.2667 286.377 49.8C287.243 49.32 288.223 49.08 289.317 49.08C290.37 49.08 291.317 49.3067 292.157 49.76C293.01 50.2 293.683 50.84 294.177 51.68C294.67 52.5067 294.917 53.5 294.917 54.66C294.917 54.78 294.91 54.92 294.897 55.08C294.883 55.2267 294.87 55.3667 294.857 55.5H286.117V53.68H293.217L292.017 54.22C292.017 53.66 291.903 53.1733 291.677 52.76C291.45 52.3467 291.137 52.0267 290.737 51.8C290.337 51.56 289.87 51.44 289.337 51.44C288.803 51.44 288.33 51.56 287.917 51.8C287.517 52.0267 287.203 52.3533 286.977 52.78C286.75 53.1933 286.637 53.6867 286.637 54.26V54.74C286.637 55.3267 286.763 55.8467 287.017 56.3C287.283 56.74 287.65 57.08 288.117 57.32C288.597 57.5467 289.157 57.66 289.797 57.66C290.37 57.66 290.87 57.5733 291.297 57.4C291.737 57.2267 292.137 56.9667 292.497 56.62L294.157 58.42C293.663 58.98 293.043 59.4133 292.297 59.72C291.55 60.0133 290.69 60.16 289.717 60.16ZM297.894 60V49.24H300.874V52.28L300.454 51.4C300.774 50.64 301.287 50.0667 301.994 49.68C302.701 49.28 303.561 49.08 304.574 49.08V51.96C304.441 51.9467 304.321 51.94 304.214 51.94C304.107 51.9267 303.994 51.92 303.874 51.92C303.021 51.92 302.327 52.1667 301.794 52.66C301.274 53.14 301.014 53.8933 301.014 54.92V60H297.894Z" fill="white"/>
</svg>
